<svg xmlns="http://www.w3.org/2000/svg" xmlns:xlink="http://www.w3.org/1999/xlink" viewBox="0 0 100 100">
    <defs>
        <path id="a" d="M.001 0h90.888v100H.001z"/>
    </defs>
    <g fill="none" fill-rule="evenodd">
        <g opacity=".5">
            <path fill="#FFF" d="M66.251 44.558l-.94-1.906-.943 1.906a.737.737 0 0 1-.559.406l-2.106.308 1.523 1.483a.745.745 0 0 1 .214.658l-.359 2.096 1.882-.99a.73.73 0 0 1 .692 0l1.882.99-.358-2.096a.74.74 0 0 1 .214-.658l1.522-1.483-2.105-.308a.734.734 0 0 1-.559-.406M51.386 44.558l-.94-1.906-.943 1.906a.737.737 0 0 1-.558.406l-2.106.308 1.523 1.483a.745.745 0 0 1 .213.658l-.359 2.096 1.883-.99a.727.727 0 0 1 .691 0l1.883.99-.359-2.096a.743.743 0 0 1 .214-.658l1.522-1.483-2.105-.308a.737.737 0 0 1-.559-.406M36.52 44.558l-.94-1.906-.942 1.906a.734.734 0 0 1-.558.406l-2.106.308 1.523 1.483a.742.742 0 0 1 .213.658l-.358 2.096 1.882-.99a.73.73 0 0 1 .692 0l1.882.99-.36-2.096a.743.743 0 0 1 .216-.658l1.522-1.483-2.105-.308a.737.737 0 0 1-.56-.406"/>
            <path fill="#FFF" d="M71.03 45.287l-2.32 2.261.548 3.194a.747.747 0 0 1-.295.727.756.756 0 0 1-.784.056l-2.87-1.509-2.868 1.51a.744.744 0 0 1-1.079-.783l.548-3.195-2.321-2.26a.742.742 0 0 1 .41-1.269l3.21-.468 1.434-2.909c.25-.507 1.083-.507 1.333 0l1.435 2.91 3.209.467a.743.743 0 0 1 .411 1.268m-14.865 0l-2.322 2.261.548 3.194a.742.742 0 0 1-1.078.783l-2.87-1.509-2.868 1.51a.742.742 0 1 1-1.078-.783l.548-3.195-2.322-2.26a.744.744 0 0 1 .41-1.269l3.21-.468 1.435-2.909c.249-.507 1.083-.507 1.332 0l1.436 2.91 3.209.467a.745.745 0 0 1 .41 1.268m-14.864 0l-2.322 2.261.548 3.194a.744.744 0 0 1-1.08.783l-2.868-1.509-2.87 1.51a.742.742 0 0 1-1.077-.784l.547-3.194-2.321-2.26a.743.743 0 0 1 .41-1.269l3.21-.468 1.435-2.909c.25-.507 1.083-.507 1.333 0l1.434 2.91 3.209.467a.742.742 0 0 1 .412 1.268M72.33 32.905H28.56a2.646 2.646 0 0 0-2.642 2.643v29.444l5.72-5.72c.28-.279.658-.436 1.052-.436h39.64a2.646 2.646 0 0 0 2.642-2.643V35.548a2.646 2.646 0 0 0-2.642-2.643"/>
            <g transform="translate(5)">
                <mask id="b" fill="#fff">
                    <use xlink:href="#a"/>
                </mask>
                <path fill="#FFF" d="M72.945 56.193a5.622 5.622 0 0 1-5.615 5.616H28.305l-7.823 7.822a1.478 1.478 0 0 1-1.62.323 1.487 1.487 0 0 1-.917-1.373V35.547a5.623 5.623 0 0 1 5.615-5.615h43.77a5.623 5.623 0 0 1 5.615 5.615v20.646zm9.945-37.05l-29.445-17a16 16 0 0 0-16 0L8 19.143A15.999 15.999 0 0 0 0 33v34a15.997 15.997 0 0 0 8 13.856l29.445 17a16 16 0 0 0 16 0l29.445-17A15.997 15.997 0 0 0 90.889 67V33a15.999 15.999 0 0 0-8-13.857z" mask="url(#b)"/>
            </g>
        </g>
    </g>
</svg>
