<svg xmlns="http://www.w3.org/2000/svg" xmlns:xlink="http://www.w3.org/1999/xlink" viewBox="0 0 100 100">
    <defs>
        <path id="a" d="M36.826 2.222l-28.82 16.64A15.733 15.733 0 0 0 .139 32.486v33.28c0 5.621 3 10.814 7.867 13.625l28.82 16.64a15.735 15.735 0 0 0 15.733 0l28.821-16.64a15.733 15.733 0 0 0 7.867-13.624v-33.28c0-5.621-2.999-10.814-7.867-13.625L52.56 2.222A15.72 15.72 0 0 0 44.693.115c-2.716 0-5.432.702-7.867 2.107z"/>
    </defs>
    <g fill="none" fill-rule="evenodd">
        <g transform="translate(5 .719)">
            <mask id="b" fill="#fff">
                <use xlink:href="#a"/>
            </mask>
            <path fill="#0F186D" d="M56.09 107.15h53.88V41.874H56.09z" mask="url(#b)"/>
            <path fill="#583889" d="M86.478 91.485L59.409 73.347l.128-.357 52.056 5.441.069.37-24.987 12.697z" mask="url(#b)"/>
            <path fill="#583889" d="M111.573 78.626l-52.056-5.442 27.07 18.138z" mask="url(#b)"/>
            <path fill="#582C7D" d="M47.018 106.936l-.178-.264 12.494-33.555.362-.014 15.617 34.464-.185.276z" mask="url(#b)"/>
            <path fill="#582C7D" d="M59.518 73.184l-12.494 33.557 28.11.906z" mask="url(#b)"/>
            <path fill="#583889" d="M74.956 107.729L59.338 73.266l.289-.243 27.068 18.138.051.275-11.451 16.324z" mask="url(#b)"/>
            <path fill="#583889" d="M59.518 73.184l15.616 34.463 11.452-16.324z" mask="url(#b)"/>
            <path fill="#5C518F" d="M59.498 73.38l-.16-.273 12.494-29.021.309-.071 39.561 34.464-.148.342z" mask="url(#b)"/>
            <path fill="#5C518F" d="M72.011 44.162L59.518 73.185l52.056 5.441z" mask="url(#b)"/>
            <path fill="#719560" d="M71.882 44.31l.19-.333L115.8 58.488l.129.225-4.165 19.953-.319.107z" mask="url(#b)"/>
            <path fill="#719560" d="M72.011 44.162l39.563 34.464 4.164-19.952z" mask="url(#b)"/>
            <path fill="#719560" d="M71.949 44.348l.007-.372 55.178-16.326.239.256-11.452 30.835-.244.118z" mask="url(#b)"/>
            <path fill="#719560" d="M127.191 27.837l-55.18 16.325 43.727 14.512z" mask="url(#b)"/>
            <path fill="#583889" d="M24.06 99.672l-.058-.343 35.399-26.301.3.225-12.494 33.556-.243.117z" mask="url(#b)"/>
            <path fill="#583889" d="M59.518 73.184L24.12 99.485l22.904 7.256z" mask="url(#b)"/>
            <path fill="#5C518F" d="M23.936 99.555L17.69 83.231l.138-.26 41.644-9.976.162.347-35.398 26.301z" mask="url(#b)"/>
            <path fill="#5C518F" d="M17.872 83.161l6.247 16.324 35.399-26.301z" mask="url(#b)"/>
            <path fill="#657079" d="M48.935 54.232l.094-.272 22.904-9.977.257.257-12.493 29.022-.352.017z" mask="url(#b)"/>
            <path fill="#657079" d="M72.011 44.162l-22.905 9.977 10.412 19.046z" mask="url(#b)"/>
            <path fill="#626681" d="M17.739 83.018l31.233-29.023.305.05 10.412 19.046-.125.284-41.646 9.976z" mask="url(#b)"/>
            <path fill="#626681" d="M49.106 54.139L17.873 83.161l41.645-9.976z" mask="url(#b)"/>
            <path fill="#77A853" d="M47.996 35.277l-.049-.34 22.905-17.232.314.149 1.04 26.301-.265.19z" mask="url(#b)"/>
            <path fill="#77A853" d="M70.969 17.861L48.065 35.093l23.945 9.069z" mask="url(#b)"/>
            <path fill="#6A816E" d="M48.91 54.149l-1.041-19.045.265-.193 23.947 9.069.009.362-22.906 9.977z" mask="url(#b)"/>
            <path fill="#6A816E" d="M72.011 44.162l-23.946-9.069 1.041 19.046z" mask="url(#b)"/>
            <path fill="#6A816E" d="M17.679 83.137l4.163-34.463.233-.169 27.07 5.443.094.334-31.233 29.022z" mask="url(#b)"/>
            <path fill="#6A816E" d="M49.106 54.139l-27.069-5.442-4.164 34.464z" mask="url(#b)"/>
            <path fill="#719560" d="M71.816 44.17l-1.041-26.301.229-.2 56.221 9.976.02.38L72.067 44.35z" mask="url(#b)"/>
            <path fill="#719560" d="M70.969 17.861l1.041 26.301 55.181-16.324z" mask="url(#b)"/>
            <path fill="#B7CD3E" d="M70.935 18.054l-.127-.303L83.302-.389l.267-.052 43.727 28.114-.141.357z" mask="url(#b)"/>
            <path fill="#B7CD3E" d="M83.463-.277L70.97 17.861l56.221 9.977z" mask="url(#b)"/>
            <path fill="#605C87" d="M-16.532 89.7l.012-.382 34.358-6.348.217.121 6.247 16.326-.23.259z" mask="url(#b)"/>
            <path fill="#605C87" d="M-16.485 89.509l40.604 9.977-6.247-16.326z" mask="url(#b)"/>
            <path fill="#719560" d="M21.999 48.889l-.053-.365L47.974 34.92l.286.163 1.042 19.045-.235.203z" mask="url(#b)"/>
            <path fill="#719560" d="M48.065 35.093L22.037 48.698l27.069 5.441z" mask="url(#b)"/>
            <path fill="#77A853" d="M21.843 48.674l3.123-25.394.284-.151L48.154 34.92l.002.347-26.028 13.604z" mask="url(#b)"/>
            <path fill="#77A853" d="M25.16 23.303l-3.124 25.394 26.029-13.605z" mask="url(#b)"/>
            <path fill="#7FB947" d="M25.071 23.476l.066-.367 45.809-5.442.142.351L48.183 35.25l-.207.017z" mask="url(#b)"/>
            <path fill="#7FB947" d="M70.969 17.861L25.16 23.303l22.905 11.79z" mask="url(#b)"/>
            <path fill="#687775" d="M-16.667 89.438l10.412-26.302.307-.077 23.945 19.952-.089.342-34.357 6.349z" mask="url(#b)"/>
            <path fill="#687775" d="M-6.074 63.208l-10.411 26.301 34.357-6.348z" mask="url(#b)"/>
            <path fill="#719560" d="M-6.198 63.359l.035-.324 28.11-14.512.284.197-4.165 34.465-.318.126z" mask="url(#b)"/>
            <path fill="#719560" d="M22.037 48.698l-28.111 14.51L17.872 83.16z" mask="url(#b)"/>
            <path fill="#77A853" d="M-6.268 63.195l2.081-29.929.295-.156 26.029 15.419-.01.342-28.111 14.511z" mask="url(#b)"/>
            <path fill="#77A853" d="M-3.991 33.279l-2.083 29.929 28.111-14.51z" mask="url(#b)"/>
            <path fill="#AACA40" d="M25.028 23.16L58.344-7.676l.308.057 12.493 25.394-.152.281-45.81 5.442z" mask="url(#b)"/>
            <path fill="#AACA40" d="M58.476-7.532L25.16 23.303l45.809-5.442z" mask="url(#b)"/>
            <path fill="#C6D23C" d="M70.794 17.948L58.301-7.446l.229-.274L83.518-.464l.107.297-12.494 18.139z" mask="url(#b)"/>
            <path fill="#C6D23C" d="M83.463-.277L58.476-7.532 70.97 17.861z" mask="url(#b)"/>
            <path fill="#7FB947" d="M-4.091 33.447l.036-.353 29.151-9.976.258.209-3.122 25.394-.295.145z" mask="url(#b)"/>
            <path fill="#7FB947" d="M25.16 23.303L-3.991 33.28l26.027 15.417z" mask="url(#b)"/>
            <path fill="#AACA40" d="M-4.187 33.279V6.072l.295-.169 29.151 17.231-.035.354-29.152 9.976z" mask="url(#b)"/>
            <path fill="#AACA40" d="M-3.991 6.072V33.28l29.151-9.977z" mask="url(#b)"/>
            <path fill="#C9D63B" d="M24.966 23.321l-3.124-32.65.204-.213 36.439 1.814.124.34-33.316 30.835z" mask="url(#b)"/>
            <path fill="#C9D63B" d="M58.476-7.532L22.037-9.347l3.123 32.65z" mask="url(#b)"/>
            <path fill="#D1D739" d="M-4.091 6.24v-.337L21.937-9.515l.295.15 3.123 32.649-.294.187z" mask="url(#b)"/>
            <path fill="#D1D739" d="M22.037-9.347L-3.992 6.072 25.16 23.303z" mask="url(#b)"/>
        </g>
        <g fill="#FFF">
            <path d="M28.237 33.086a2.595 2.595 0 0 0-2.59 2.59v28.868l5.61-5.61a1.457 1.457 0 0 1 1.03-.426h38.862a2.593 2.593 0 0 0 2.59-2.59V35.676a2.594 2.594 0 0 0-2.59-2.591H28.237zM24.19 69.519a1.458 1.458 0 0 1-1.457-1.457V35.677a5.512 5.512 0 0 1 5.505-5.506H71.15a5.513 5.513 0 0 1 5.505 5.506v20.24a5.512 5.512 0 0 1-5.505 5.506H32.89l-7.67 7.67c-.278.279-.65.426-1.03.426z"/>
            <path d="M35.12 48.309c.116 0 .232.027.34.084l1.845.97-.353-2.054a.73.73 0 0 1 .21-.646l1.493-1.453-2.064-.302a.726.726 0 0 1-.549-.398l-.923-1.87-.922 1.87a.723.723 0 0 1-.548.398l-2.064.302 1.492 1.453a.729.729 0 0 1 .211.646l-.353 2.054 1.845-.97a.718.718 0 0 1 .34-.084m3.152 3.115a.751.751 0 0 1-.34-.083l-2.813-1.48-2.812 1.48a.727.727 0 1 1-1.057-.768l.537-3.132-2.276-2.217a.727.727 0 0 1 .403-1.242l3.146-.46 1.406-2.85c.246-.499 1.062-.499 1.307 0l1.407 2.85 3.146.46a.727.727 0 1 1 .403 1.242l-2.276 2.217.537 3.132a.728.728 0 0 1-.718.851M49.693 48.309c.117 0 .232.027.34.084l1.845.97-.353-2.054a.725.725 0 0 1 .21-.646l1.492-1.453-2.063-.302a.726.726 0 0 1-.548-.398l-.923-1.87-.922 1.87a.726.726 0 0 1-.548.398l-2.064.302 1.492 1.453a.725.725 0 0 1 .21.646l-.353 2.054 1.845-.97a.725.725 0 0 1 .34-.084m3.153 3.115a.748.748 0 0 1-.34-.083l-2.813-1.48-2.813 1.48a.725.725 0 0 1-.767-.056.725.725 0 0 1-.29-.712l.538-3.132-2.277-2.217a.725.725 0 0 1-.184-.746.726.726 0 0 1 .586-.496l3.146-.46 1.408-2.85c.244-.499 1.062-.499 1.306 0l1.408 2.85 3.146.46c.274.04.501.232.586.496a.725.725 0 0 1-.184.746l-2.277 2.217.538 3.132a.725.725 0 0 1-.717.851M64.267 48.309c.117 0 .232.027.34.084l1.844.97-.353-2.054a.729.729 0 0 1 .211-.646l1.492-1.453-2.064-.302a.723.723 0 0 1-.548-.398l-.922-1.87-.923 1.87a.726.726 0 0 1-.549.398l-2.063.302 1.493 1.453a.73.73 0 0 1 .21.646l-.353 2.054 1.845-.97a.725.725 0 0 1 .34-.084m3.152 3.115a.744.744 0 0 1-.34-.083l-2.812-1.48-2.813 1.48a.728.728 0 1 1-1.058-.768l.538-3.132-2.277-2.217a.727.727 0 0 1 .403-1.242l3.146-.46 1.407-2.85c.245-.499 1.062-.499 1.307 0l1.407 2.85 3.146.46a.727.727 0 1 1 .403 1.242l-2.277 2.217.537 3.132a.727.727 0 0 1-.717.851"/>
        </g>
    </g>
</svg>
